<?xml version="1.0" encoding="utf-8"?>
<!-- Generator: Adobe Illustrator 23.1.0, SVG Export Plug-In . SVG Version: 6.00 Build 0)  -->
<svg version="1.1" xmlns="http://www.w3.org/2000/svg" xmlns:xlink="http://www.w3.org/1999/xlink" x="0px" y="0px"
	 viewBox="0 0 16 16" style="enable-background:new 0 0 16 16;" xml:space="preserve">
<style type="text/css">
	.st0{fill:none;}
	.st1{fill:none;stroke:#000000;stroke-miterlimit:10;}
</style>
<g id="Слой_1">
	<g>
	</g>
	<g>
		<polygon class="st0" points="3.58,1.9 8.05,1.9 8.05,1.9 3.58,1.9 		"/>
	</g>
	<g>
	</g>
	<g>
		<path d="M4.26,2.45L4.24,2.46l0.02,0.08L4.25,2.61l0.01,0.01L4.24,2.64C4.22,2.7,4.21,2.74,4.2,2.77L4.17,2.74L4.12,2.77
			L4.09,2.75L4.07,2.79C4.04,2.79,4.01,2.78,4,2.77L3.93,2.81v0.01H3.89l-0.06-0.1L3.77,2.77L3.75,2.75L3.74,2.78
			c-0.01,0-0.04-0.03-0.07-0.08C3.64,2.64,3.62,2.62,3.6,2.62c0,0-0.01,0-0.01,0l-0.03,0.1c0-0.04-0.01,0.07-0.02,0.31
			c0,0.02,0,0.06,0,0.1c0,0.03-0.01,0.08-0.02,0.14c0,0.05,0,0.11-0.01,0.2c0,0.02-0.01,0.05-0.02,0.09c0,0.04-0.01,0.09-0.01,0.16
			L3.5,3.82l0.02,0.02L3.51,3.87l0.07,0.1l0.04,0.01c0.07-0.02,0.12-0.06,0.15-0.12l0.02-0.08L3.76,3.72H3.72L3.72,3.7l0.03-0.09
			l0.03,0.02H3.8V3.6l0.02-0.01c0.01,0.02,0.01,0.05,0,0.07l0.02,0.04l0.03,0.02C3.86,3.75,3.85,3.78,3.83,3.81v0.12L3.82,3.97
			L3.8,4.02C3.76,4.02,3.72,4.06,3.68,4.13v0.07L3.66,4.18V4.2L3.58,4.18C3.55,4.1,3.52,4.05,3.48,4.03l-0.01,0.1L3.44,4.22
			l0.01,0.09C3.44,4.35,3.44,4.39,3.44,4.42L3.43,4.43l0,0.02L3.41,4.49l0.02,0.01L3.4,4.73L3.39,4.74l0.02,0.07
			C3.4,4.9,3.4,4.97,3.4,5.01L3.38,5L3.37,5.08L3.35,5.06c-0.01,0.06-0.02,0.12-0.02,0.2L3.3,5.36C3.27,5.39,3.24,5.43,3.2,5.47
			l0.01,0.03L3.18,5.5L3.17,5.55H3.13L3.11,5.5c-0.07-0.03-0.14-0.09-0.2-0.19L2.87,5.1L2.86,4.96c0-0.07,0.01-0.17,0.04-0.27
			c0.03-0.11,0.05-0.17,0.07-0.2l0.06-0.04c0.02,0.01,0.03,0.02,0.04,0.01L3.1,4.51l0.04,0.02L3.16,4.6L3.15,4.65l0.02,0.12
			L3.15,4.9l-0.04,0.1L3.1,4.98c0,0-0.02,0-0.04-0.01L3.05,4.98L3.04,4.96c0-0.03,0-0.06,0-0.1h0.02L3.04,4.82L3.02,4.77l0-0.05
			l0.03,0.02c0.02,0.05,0.04,0.1,0.04,0.16C3.09,4.9,3.1,4.88,3.11,4.86l0.01,0.01l0.01-0.06l-0.01-0.1L3.08,4.6L3.01,4.57
			C3,4.59,2.99,4.65,2.98,4.72C2.97,4.79,2.96,4.85,2.96,4.9l0.01,0.06V5h0.01v0.02l0.02,0.06L2.97,5.11v0.05L3,5.21v0.04l0.03,0.05
			l0.01,0.06l0.08,0.07L3.14,5.4l0.01,0.02l0.03-0.03C3.21,5.3,3.24,5.18,3.25,5.03c0-0.07,0.01-0.17,0.02-0.3L3.3,4.69l0.02-0.06
			c0-0.06,0-0.11,0-0.14c0,0.03,0-0.01,0.01-0.13C3.31,4.24,3.31,4.2,3.31,4.23c0-0.05,0.01-0.16,0.03-0.33L3.22,3.87L3.17,3.92
			l-0.04,0.1v0.04l0.02,0.05l0.02,0.02L3.17,4.2H3.13L3.13,4.15L3.09,4.06l0.01-0.09l0.04-0.08L3.12,3.87l0.01-0.04L3.15,3.8
			l0.01-0.04h0.02l0.04-0.04l0.13,0.06c0.02-0.1,0.03-0.17,0.03-0.23L3.36,3.47l0.02-0.08V3.33h0.02c0-0.06,0.01-0.15,0.03-0.25
			L3.41,3.04C3.43,2.87,3.46,2.73,3.5,2.64l0.01-0.08L3.5,2.5L3.43,2.42L3.42,2.38C3.4,2.37,3.38,2.35,3.37,2.32L3.35,2.31
			L3.34,2.27H3.28L3.28,2.33l0.02,0.04L3.25,2.46c-0.02,0-0.04-0.02-0.07-0.05C3.14,2.36,3.12,2.34,3.11,2.33
			C3.09,2.32,3.05,2.3,3,2.27L2.93,2.32L2.92,2.35L2.9,2.37L2.88,2.46L2.86,2.49l-0.02,0.1l0.01,0.09C2.85,2.77,2.85,2.83,2.85,2.87
			c0,0.01,0.01,0.05,0.02,0.13L2.9,3.04L2.89,3.06v0.08l0.07,0.2l0.09,0.03l0.03-0.04l0.04-0.16c0.01-0.09,0.01-0.15,0.01-0.19
			c0,0,0-0.06-0.01-0.19L3.08,2.64L3.14,2.7C3.17,2.78,3.19,2.85,3.2,2.91c0,0.09,0.01,0.16,0.03,0.2l0,0.08L3.15,3.23L3.13,3.28
			l0.02,0.01l-0.04,0.1C3.08,3.4,3.05,3.44,3.03,3.49L2.98,3.44L2.96,3.47L2.95,3.44L2.93,3.48C2.92,3.45,2.9,3.41,2.88,3.36
			L2.87,3.24L2.84,3.19L2.84,3.14L2.81,3.07L2.79,3.04c-0.01-0.18-0.03-0.3-0.05-0.36l0.01-0.2c0.02-0.1,0.04-0.17,0.06-0.21
			c0.03-0.04,0.08-0.09,0.14-0.15C3.03,2.07,3.1,2.04,3.16,2.04c0.01,0,0.01,0,0.01,0l0.41,0.28c0.06-0.12,0.1-0.19,0.14-0.2
			l0.03,0.07l0,0.01L3.74,2.29L3.72,2.32C3.7,2.31,3.69,2.31,3.69,2.31c-0.01,0-0.02,0-0.04,0.01L3.63,2.35
			c0.02,0.01,0.06,0.04,0.1,0.08C3.77,2.47,3.81,2.5,3.82,2.52c0.03,0.01,0.07,0.02,0.13,0.04C3.96,2.57,3.98,2.58,4,2.59
			C4.03,2.6,4.07,2.61,4.12,2.62L4.2,2.56l0.01-0.1L4.18,2.44V2.42L4.17,2.41L4.2,2.37c0.01,0.02,0.03,0.02,0.05,0.01L4.26,2.45z"/>
		<path d="M5.04,4.86C5.02,4.92,5,4.96,4.98,5.01L4.96,5.03l-0.03,0.1C4.9,5.15,4.87,5.19,4.85,5.24C4.81,5.25,4.79,5.25,4.79,5.25
			c-0.04,0-0.08-0.04-0.13-0.12V5.12C4.65,5.08,4.65,5.06,4.64,5.04V5l0-0.02L4.63,5.01V4.95L4.62,4.96L4.59,4.83L4.56,4.8V4.79
			L4.54,4.72H4.54V4.67L4.52,4.65C4.51,4.67,4.5,4.71,4.49,4.76v0.03L4.48,4.82l0,0.06l-0.03,0.1H4.44l0,0.06L4.36,5.29l0,0.04
			L4.31,5.48l0,0.04L4.28,5.57l0,0.03V5.58L4.25,5.61L4.24,5.65L4.21,5.68C4.18,5.66,4.16,5.65,4.13,5.66L4.12,5.59
			c0.05-0.04,0.12-0.17,0.2-0.4h0.01c0-0.02,0.01-0.04,0.02-0.06l0.01-0.05h0.01C4.38,5.03,4.4,4.92,4.44,4.75
			c0.04-0.17,0.05-0.28,0.06-0.32L4.48,4.42l-0.03-0.2l0-0.09C4.45,4.11,4.42,4,4.39,3.78l0-0.03C4.39,3.61,4.39,3.53,4.39,3.5
			c0-0.01,0-0.03,0-0.05c0-0.02,0-0.04,0-0.05V3.06l0.02,0.08l0.02-0.03l-0.01-0.1L4.39,2.92c0-0.27,0.01-0.51,0.03-0.71
			C4.43,2.04,4.47,1.84,4.53,1.6l0.01-0.01V1.56h0.02V1.52C4.57,1.49,4.58,1.47,4.6,1.47L4.6,1.42l0.01,0.01L4.64,1.4l0.02,0.01
			l0.01-0.05h0.04l0.03,0.1l0.02,0.02l0.01,0.13C4.76,1.62,4.78,1.65,4.8,1.69l0,0.04l0.02,0.04L4.82,1.82L4.81,1.85l0,0.13l0,0.02
			l0.02,0.05L4.82,2.19H4.81v0.1h0L4.8,2.34L4.81,2.4L4.8,2.44v0.13L4.79,2.65l0,0.14L4.76,2.92v0.04H4.75
			C4.74,3.01,4.74,3.08,4.73,3.18C4.73,3.32,4.72,3.4,4.72,3.4C4.72,3.46,4.71,3.53,4.7,3.64L4.67,3.73
			C4.66,3.82,4.64,3.94,4.63,4.1H4.61v0.04L4.6,4.21c0,0.06,0.01,0.11,0.01,0.13L4.6,4.35c0.01,0.13,0.03,0.26,0.06,0.41l0.01,0.01
			c0,0.08,0.01,0.13,0.03,0.14C4.7,4.96,4.72,5,4.74,5.03c0.02,0.03,0.03,0.05,0.03,0.06c0,0.01,0.01,0.02,0.03,0.03
			c0.01,0,0.02-0.01,0.04-0.02c0.02-0.01,0.03-0.02,0.04-0.02c0.02-0.05,0.04-0.08,0.05-0.08l0.01-0.04l0.02-0.02
			c0.02-0.06,0.04-0.11,0.06-0.16L5.03,4.8L5.04,4.86z M4.77,1.92c0-0.02,0-0.04,0-0.06L4.76,1.85V1.82L4.74,1.77V1.73H4.73
			L4.71,1.56l0,0.04L4.7,1.54L4.69,1.51l0,0.02L4.67,1.51l0,0.04L4.65,1.57l0,0.05L4.63,1.63C4.62,1.79,4.61,1.89,4.6,1.93v0.03
			l-0.04,0.2v0.01C4.54,2.19,4.53,2.24,4.52,2.32C4.51,2.4,4.5,2.46,4.5,2.51c0,0.02,0,0.06,0,0.11c0,0.05,0,0.08,0,0.11l0.01,0.05
			L4.5,2.73L4.5,2.85l0.03,0.09c0.01,0.04,0.01,0.08,0.01,0.11l0,0.01l0,0.01l0.01,0.04l0.01,0.2H4.54l0,0.08L4.53,3.34L4.51,3.39
			c0.01,0.1,0.01,0.21,0.01,0.33l0.01,0.07L4.52,3.84c0,0.06,0.01,0.11,0,0.16l0.04,0.16c0.01-0.05,0.03-0.12,0.03-0.2
			C4.6,3.89,4.6,3.82,4.61,3.75l0.01,0.01l0.01-0.1L4.62,3.64l0.01-0.07l0.03-0.02c0-0.06,0-0.12,0.02-0.19c0-0.05,0-0.08,0-0.1
			L4.7,3.06H4.69V3.04L4.69,2.99l0.01-0.06l0,0.01V2.92l0.02-0.04C4.72,2.81,4.73,2.72,4.74,2.6c0-0.04,0-0.09,0-0.16
			c0-0.03,0.01-0.07,0.01-0.13c0-0.05,0-0.12,0-0.21c0-0.02,0-0.05,0.01-0.09C4.77,1.97,4.77,1.94,4.77,1.92z"/>
		<path d="M5.83,4.83L5.82,4.85v0.01C5.81,4.89,5.81,4.91,5.8,4.92L5.78,4.96v0.01L5.76,5.02C5.73,5.03,5.69,5.07,5.65,5.13
			L5.62,5.09l0.02,0.06H5.62L5.58,5.23H5.54L5.53,5.25c-0.01,0-0.03,0-0.06,0.01L5.45,5.24L5.43,5.25C5.4,5.22,5.38,5.21,5.36,5.24
			c-0.01,0-0.04-0.04-0.07-0.1V5.11L5.25,5.04h0L5.24,5L5.23,4.98L5.22,4.96L5.2,4.94c0-0.03-0.01-0.05-0.02-0.07V4.84L5.17,4.8
			V4.68L5.15,4.65L5.14,4.65c0-0.06-0.01-0.11-0.03-0.15l0-0.08l0.01-0.1l0.02-0.01L5.13,4.3V4.23H5.12L5.11,4.2L5.09,4.15L5.1,4.03
			l0.03-0.01l0.03,0.1c0.01-0.04,0.02-0.11,0.05-0.19c0.02-0.08,0.04-0.12,0.06-0.13l0.01,0.01L5.3,3.78V3.75
			c0.06-0.06,0.1-0.1,0.13-0.1c0,0,0.01,0,0.01,0l0.02-0.01h0.04l0.02,0.02l0.02-0.01l0.05,0.02C5.6,3.72,5.62,3.77,5.64,3.82v0.08
			l0.03,0.13L5.66,4.1v0.03L5.65,4.17v0.04h0.01l-0.02,0.1L5.63,4.34H5.62C5.61,4.35,5.6,4.37,5.59,4.39H5.58L5.57,4.43
			C5.53,4.44,5.51,4.45,5.49,4.44V4.43C5.45,4.42,5.42,4.42,5.38,4.42L5.37,4.44H5.35L5.34,4.46L5.33,4.42H5.3v0.07
			C5.3,4.58,5.31,4.63,5.31,4.65L5.3,4.67l0.03,0.1v0.07l0.03,0.02l0.03,0.08L5.4,4.96L5.4,5l0.04,0.02
			C5.47,5.01,5.5,5.01,5.51,5.01l0-0.03l0.01,0.03L5.54,5l0.03,0.01l0.04-0.05l0.01,0.01l0.01-0.02l0.03-0.01V4.91l0.06,0.01V4.9
			l0.03-0.02c0.02-0.03,0.04-0.06,0.04-0.09C5.8,4.78,5.81,4.76,5.82,4.73l0.01,0.02V4.83z M5.63,4.01L5.62,3.96
			C5.59,3.9,5.56,3.87,5.53,3.87H5.49c-0.05,0-0.08,0.02-0.1,0.05L5.38,3.94l0.01,0.01L5.34,4.12L5.33,4.17L5.32,4.15v0.06
			L5.31,4.24v0.04c0.03-0.01,0.07,0,0.12,0.03c0.02,0,0.05-0.02,0.1-0.06C5.57,4.21,5.59,4.17,5.6,4.14l0-0.02l0.02-0.02L5.63,4.01z
			"/>
		<path d="M6.78,4.8L6.77,4.88c-0.06,0.19-0.11,0.3-0.14,0.35L6.62,5.27H6.58L6.57,5.29L6.54,5.27l0-0.02H6.52
			C6.48,5.08,6.45,4.93,6.43,4.79L6.38,4.94L6.34,4.98L6.33,5.04L6.31,5.05L6.3,5.08L6.28,5.11L6.26,5.23L6.22,5.26v0.11L6.17,5.36
			l-0.08-0.2C6.08,5.08,6.07,4.99,6.06,4.86l0.02-0.23C6.07,4.68,6.05,4.72,6.01,4.76v0.03H6v0.02L5.99,4.83L5.98,4.88L5.96,4.91
			H5.95C5.92,4.93,5.9,4.95,5.89,4.97L5.82,5L5.81,4.92c0.07-0.07,0.16-0.21,0.27-0.41c0.02-0.04,0.05-0.1,0.08-0.2
			s0.05-0.16,0.07-0.2C6.25,4.1,6.26,4.08,6.29,4.05c0.03-0.06,0.06-0.11,0.09-0.17c0.04-0.06,0.07-0.11,0.1-0.14l0.01,0.01
			L6.5,3.75l0.04,0.14l0,0.05L6.52,4.09L6.51,4.08L6.51,4.09L6.48,4.1L6.47,4.13H6.45L6.45,4.15H6.43L6.42,4.13H6.41L6.42,4.2
			L6.38,4.23C6.36,4.27,6.35,4.3,6.34,4.33H6.33L6.31,4.41C6.29,4.46,6.27,4.49,6.26,4.5L6.26,4.53v0.02L6.22,4.8L6.2,4.83v0.03
			c-0.03,0.12-0.04,0.2-0.04,0.26l0.01,0.01C6.23,5.07,6.27,5,6.31,4.94V4.91C6.34,4.86,6.36,4.8,6.37,4.74
			C6.38,4.72,6.4,4.68,6.41,4.61C6.43,4.55,6.44,4.5,6.45,4.44c0-0.05,0-0.12,0.02-0.21l0.01,0.02l0.01-0.01L6.5,4.28l0,0.02h0.01
			l0,0.02h0.01c0.01,0.09,0.02,0.2,0.02,0.31v0.19c0,0.02,0,0.04,0,0.07c0,0.04,0,0.06-0.01,0.07v0.16c0,0.04,0.01,0.06,0.01,0.07
			L6.6,5.15l0-0.03L6.66,5h0c0.02-0.04,0.05-0.11,0.09-0.21l0.01-0.01L6.78,4.8z"/>
		<path d="M8.56,4.95L8.53,4.98L8.47,5.01L8.41,4.97V4.96L8.37,4.95L8.34,4.91C8.32,4.9,8.31,4.89,8.3,4.88S8.29,4.84,8.28,4.81
			S8.27,4.75,8.26,4.74L8.25,4.61c0-0.07,0-0.12,0-0.16c0-0.01-0.01-0.1-0.02-0.26L8.22,4.15L8.2,4.17V4.2L8.17,4.29v0.03L8.16,4.33
			C8.14,4.4,8.13,4.45,8.13,4.5l0.01,0.01L8.13,4.53L8.11,4.68L8.1,4.7c0,0.14-0.01,0.28-0.04,0.42L8.03,5.11l0,0.01L8,5.05
			L7.98,5.04L7.97,4.77c0.01-0.05,0.01-0.08,0.01-0.1c0-0.18-0.01-0.32-0.02-0.41l0.02,0.02V4.14c0,0.03-0.01-0.05-0.02-0.23
			L7.94,3.93L7.93,3.92L7.92,3.94l0,0.05L7.91,3.99c0,0.05-0.01,0.1-0.02,0.13L7.9,4.14L7.88,4.17L7.87,4.23L7.86,4.26
			C7.85,4.32,7.84,4.39,7.83,4.48C7.81,4.61,7.81,4.68,7.8,4.71h0.01c0,0.08,0,0.16,0.01,0.23L7.8,4.98l0,0.08
			C7.8,5.1,7.8,5.14,7.8,5.17L7.79,5.18L7.8,5.23L7.79,5.25L7.8,5.32H7.79v0.06c-0.01,0.03-0.01,0.06-0.02,0.1H7.76L7.75,5.53
			c-0.02,0-0.04,0.04-0.07,0.1L7.65,5.58V5.55L7.64,5.54V5.42c0,0,0-0.03,0.01-0.08l0.02-0.02c0-0.07-0.01-0.11-0.01-0.12
			c0-0.13,0.01-0.22,0.02-0.3L7.66,4.68l0.01-0.04l0.01-0.05C7.65,4.52,7.63,4.43,7.63,4.33l0.01-0.01l0-0.1L7.61,4.15
			C7.6,4.12,7.59,4.07,7.59,4L7.58,3.99C7.52,4.18,7.49,4.3,7.49,4.35C7.45,4.42,7.43,4.5,7.42,4.59C7.41,4.61,7.39,4.66,7.36,4.76
			h0L7.34,4.79v0.02H7.34L7.27,4.96l-0.01,0V4.9l0.03-0.08h0C7.3,4.78,7.31,4.73,7.33,4.67V4.65C7.34,4.59,7.36,4.51,7.39,4.4
			C7.42,4.3,7.44,4.21,7.44,4.15l0.02-0.04V4.08l0.03-0.05L7.49,4c0.02-0.06,0.05-0.11,0.09-0.15c0.04-0.05,0.08-0.07,0.11-0.06
			l0,0.01h0.02l0.01,0.04L7.72,3.92L7.73,4l0,0.05l0.02,0.07v0.34c0.01-0.09,0.05-0.26,0.12-0.5L7.86,3.93l0.05-0.14
			c0.01,0,0.03-0.01,0.05-0.02S8,3.74,8.01,3.73l0.03,0.05c0.02,0.09,0.02,0.19,0.02,0.31l0.01,0.06c0,0.12,0,0.21,0,0.27
			c0,0.04,0,0.09,0,0.14C8.07,4.5,8.08,4.44,8.1,4.41l0.01-0.1h0.01l0.05-0.17l0.07-0.1c0.01,0,0.03,0.03,0.07,0.09l0.01,0.06
			l0.02,0.04l0.02,0.23l0.02,0.02l0.01,0.14L8.4,4.76v0.03c0.01,0.04,0.02,0.06,0.03,0.07l0.01,0.04H8.5
			c0.02-0.01,0.03-0.02,0.04-0.03l0.02,0V4.95z"/>
		<path d="M9.52,4.8L9.51,4.88c-0.06,0.19-0.11,0.3-0.14,0.35L9.37,5.27H9.33L9.32,5.29L9.29,5.27l0-0.02H9.27
			C9.23,5.08,9.2,4.93,9.18,4.79L9.13,4.94L9.09,4.98L9.08,5.04L9.05,5.05L9.05,5.08L9.03,5.11L9,5.23L8.96,5.26v0.11L8.92,5.36
			l-0.08-0.2C8.82,5.08,8.81,4.99,8.81,4.86l0.02-0.23C8.82,4.68,8.79,4.72,8.76,4.76v0.03H8.74v0.02L8.73,4.83L8.72,4.88L8.7,4.91
			H8.69C8.66,4.93,8.64,4.95,8.63,4.97L8.56,5L8.56,4.92c0.07-0.07,0.16-0.21,0.27-0.41c0.02-0.04,0.05-0.1,0.08-0.2
			s0.05-0.16,0.07-0.2C8.99,4.1,9.01,4.08,9.03,4.05c0.03-0.06,0.06-0.11,0.09-0.17c0.04-0.06,0.07-0.11,0.1-0.14l0.01,0.01
			l0.01-0.01l0.04,0.14l0,0.05L9.27,4.09L9.26,4.08L9.25,4.09L9.23,4.1L9.22,4.13H9.2L9.19,4.15H9.18L9.17,4.13H9.15L9.16,4.2
			L9.12,4.23C9.1,4.27,9.09,4.3,9.09,4.33H9.07L9.06,4.41C9.03,4.46,9.02,4.49,9.01,4.5L9,4.53v0.02L8.96,4.8L8.95,4.83v0.03
			C8.92,4.97,8.9,5.06,8.9,5.12l0.01,0.01C8.97,5.07,9.02,5,9.05,4.94V4.91C9.08,4.86,9.1,4.8,9.11,4.74
			c0.01-0.01,0.03-0.05,0.04-0.13C9.17,4.55,9.18,4.5,9.19,4.44c0-0.05,0-0.12,0.02-0.21l0.01,0.02l0.01-0.01l0.01,0.03l0,0.02h0.01
			l0,0.02h0.01c0.02,0.09,0.02,0.2,0.02,0.31v0.19c0,0.02,0,0.04,0,0.07c0,0.04,0,0.06-0.01,0.07v0.16
			c0.01,0.04,0.01,0.06,0.01,0.07l0.05-0.04l0-0.03L9.41,5h0C9.43,4.96,9.46,4.89,9.5,4.79l0.01-0.01L9.52,4.8z"/>
		<path d="M10.28,4.95c0,0.05-0.03,0.15-0.07,0.29c-0.04,0.13-0.08,0.22-0.1,0.25c-0.01,0.01-0.03,0.02-0.05,0.03c0,0-0.01,0-0.02,0
			c-0.01,0-0.01,0-0.02,0C10.02,5.49,10,5.46,9.98,5.42C9.96,5.38,9.95,5.35,9.94,5.33C9.93,5.1,9.93,5.01,9.93,5.05
			c0-0.01,0-0.04,0-0.06c0-0.03,0-0.05,0-0.06c0-0.01,0-0.06-0.01-0.15l0.03-0.13l0-0.07l0-0.01C9.94,4.53,9.93,4.45,9.94,4.32
			l0.02-0.1h0.01l0.01-0.15C9.95,4,9.92,3.94,9.9,3.89l0-0.04L9.88,3.82L9.86,3.88L9.85,3.97L9.83,4.02L9.83,4.1L9.82,4.13V4.2
			C9.8,4.23,9.79,4.27,9.78,4.33c-0.01,0.1-0.02,0.15-0.02,0.15C9.75,4.51,9.73,4.6,9.68,4.74L9.65,4.76v0.03L9.64,4.82v0.04
			L9.62,4.88L9.61,4.93L9.6,4.92L9.6,4.96L9.57,5.01l-0.02,0L9.54,4.98l0-0.02l0.01-0.02h0.01l0-0.06l0.02-0.01
			c0-0.04,0.02-0.11,0.05-0.2s0.05-0.14,0.07-0.16l0.03-0.12L9.7,4.36C9.71,4.3,9.73,4.2,9.75,4.07L9.78,4L9.8,3.78
			c0-0.02-0.01-0.05-0.01-0.1L9.8,3.6C9.75,3.44,9.73,3.24,9.73,2.99L9.72,2.98l0.02-0.09L9.75,2.9l0.01-0.08l0.01,0.01l0.07-0.01
			L9.9,2.98L9.92,3.1L9.91,3.2l0.01,0.21L9.91,3.45c0,0.07,0,0.15-0.01,0.23C9.91,3.73,9.93,3.77,9.94,3.8
			c0.02,0.02,0.04,0.05,0.07,0.09l0.02-0.07h0.03c0,0,0.02,0,0.04,0.01l0.03,0.07l-0.02,0.08V4.1L10.1,4.13l0-0.03l-0.04,0.13
			l0.01,0.04l-0.02,0.05l0.01,0.04l-0.02,0.07c0,0.07,0,0.15-0.02,0.24l0.02,0.1L9.99,4.98c0,0.16,0.01,0.3,0.02,0.42l0.03,0.02
			c0.03-0.01,0.07-0.06,0.1-0.14c0,0,0.02-0.08,0.07-0.23l0-0.05l0.02-0.07l0-0.01l0.01-0.02l0.01,0.02l0.01,0L10.28,4.95z"/>
		<path d="M11.23,4.92c-0.02,0.09-0.06,0.19-0.12,0.31c-0.05,0.06-0.09,0.1-0.14,0.09l-0.1-0.09h-0.01l-0.02-0.04v0.04l-0.03-0.04
			l-0.02-0.07l-0.04-0.03l-0.01-0.04V5.03L10.71,5v-0.1l0.05,0.01c0-0.04,0.01-0.08,0.03-0.12l0.02-0.03l0-0.04l0.02-0.02
			c0-0.03,0.01-0.06,0.03-0.1c0-0.04,0.01-0.08,0.01-0.12l0.02-0.06V4.32l-0.02-0.03l-0.01,0.03l-0.02,0.01l-0.01,0.06l-0.02,0.01
			l0.01,0.07l-0.02,0.01l-0.03,0.08l-0.02,0.01v0.03l-0.01,0.01v0.04l-0.01,0.01v0.03h-0.01l0,0.01l0.02,0.06l-0.03,0.03L10.7,4.84
			l-0.01-0.01c-0.01,0.03-0.02,0.09-0.03,0.16l-0.01,0.03c-0.01,0.09-0.02,0.18-0.03,0.26c-0.01,0.1-0.02,0.19-0.02,0.28l-0.04,0.03
			l-0.05-0.13c0-0.13,0-0.27-0.01-0.4c0.01-0.03,0.01-0.08,0.01-0.14L10.48,5l-0.01,0.01l-0.01,0.05l-0.02,0.02v0.03l-0.01,0.01
			h-0.01c-0.01,0.07-0.04,0.14-0.07,0.19l-0.02-0.13l0.02-0.01V5.15c0.03-0.06,0.08-0.17,0.13-0.33V4.8l0.03-0.07
			c0-0.08,0.01-0.2,0.02-0.35l0.01-0.02l0-0.04l0.02-0.11l-0.01-0.07L10.52,4.1V3.96c0-0.02,0-0.05,0-0.1c0-0.04,0-0.07,0-0.1
			l0.02-0.07l-0.02-0.03l0-0.04c-0.01-0.03-0.01-0.08-0.01-0.14l0.01-0.07l0,0.02l0.02-0.02l0.01-0.09L10.54,3.3l0-0.1h-0.01
			c0.01-0.35,0.03-0.59,0.05-0.74h0V2.4h0.01c0-0.11,0.01-0.2,0.03-0.29V2.09l0.02-0.02c0.03-0.08,0.06-0.19,0.09-0.32l0.02-0.04
			l0.01-0.06h0.02l0.02-0.08l0.02-0.03l0.02-0.04h0.02V1.46l0.01-0.02l0.02,0.02l0,0.06l0.09,0.25c0,0.06,0,0.14,0,0.24
			c0,0.12,0,0.19,0,0.24c0,0.02,0,0.06-0.01,0.12c0,0.05,0,0.09,0,0.12L10.95,2.5l0.01,0.01c0,0.04-0.01,0.07-0.02,0.1v0.08
			l-0.01,0.01c-0.01,0.09-0.02,0.19-0.03,0.29l0.01,0.03c0,0.05-0.01,0.12-0.02,0.21l-0.01,0.03l-0.01,0.13l-0.02,0.1l0.01,0.02
			c-0.01,0.06-0.03,0.14-0.05,0.25c-0.01,0.03-0.02,0.08-0.04,0.16l-0.02,0.04l0,0.04l-0.02,0.04l-0.02,0.11l-0.08,0.21l0,0.09
			l-0.02,0.04V4.7c0.01-0.02,0.02-0.05,0.03-0.09c0.01-0.06,0.02-0.09,0.02-0.1c0.01-0.04,0.03-0.11,0.06-0.2l0.02-0.01l0.02-0.04
			c0.02,0,0.03-0.02,0.04-0.05h0.02l0.03-0.07h0.05l0.04,0.1c0.01,0.1,0.01,0.2,0.02,0.29l-0.01,0.05l-0.02,0.04l-0.01,0.1
			l-0.02,0.01l-0.01,0.02l0.01,0.01L10.91,4.8h-0.02l0,0.04l-0.01,0.02v0.01l-0.03,0.06v0.02c0.02,0.03,0.06,0.08,0.11,0.13
			l0.03,0.08l0.04,0.04l0.02-0.02l0-0.05l0.02-0.01l0.01,0.01c0.03-0.05,0.05-0.09,0.08-0.14c0.03-0.06,0.05-0.12,0.07-0.16
			l0.01,0.05V4.92z M10.91,2.29l-0.01-0.22L10.9,2.06V1.93l0.01-0.07c-0.01-0.05-0.01-0.09-0.01-0.11l-0.02-0.08l-0.04-0.02v0.03
			l-0.02,0.03l0.01,0.02l-0.01,0.01l0.01,0.07h-0.01l-0.01,0.02v0.06L10.8,1.9l-0.02,0.08L10.77,2l-0.02,0.1h-0.01l-0.02,0.09h0.01
			c-0.01,0.05-0.02,0.11-0.02,0.17H10.7c-0.01,0.13-0.01,0.19-0.01,0.19c0,0.03,0,0.11,0.01,0.22h-0.02l-0.01,0.07l-0.02,0.04
			l-0.01,0.21l0.01,0.04v0.42l-0.02,0.02c0,0.03,0.01,0.07,0,0.1L10.63,3.7v0.08l-0.01,0.05v0.13c0,0,0,0.01,0,0.02
			c0,0,0,0.08,0.01,0.21l-0.01,0.02v0.02l0.04-0.13V4.1c0.04-0.12,0.08-0.31,0.12-0.58c0.03-0.21,0.05-0.42,0.08-0.63
			c0-0.05,0-0.1,0-0.13c0-0.01,0-0.02,0-0.03c0-0.04,0-0.1,0.01-0.17c0,0,0.01-0.04,0.02-0.12c0.01-0.06,0.01-0.09,0.01-0.12
			L10.91,2.29z"/>
		<path d="M12.04,4.83l-0.02,0.02v0.01C12.01,4.89,12,4.91,12,4.92l-0.02,0.04v0.01l-0.02,0.05c-0.03,0.01-0.07,0.05-0.11,0.11
			l-0.03-0.04l0.02,0.06h-0.02l-0.04,0.08h-0.04l-0.02,0.02c-0.01,0-0.03,0-0.06,0.01l-0.02-0.02l-0.02,0.01
			c-0.03-0.03-0.05-0.04-0.07-0.01c-0.01,0-0.04-0.04-0.07-0.1V5.11l-0.03-0.07h0L11.44,5l-0.01-0.02l-0.01-0.02L11.4,4.94
			c0-0.03-0.01-0.05-0.02-0.07V4.84L11.37,4.8V4.68l-0.02-0.04l-0.01,0.01c0-0.06-0.01-0.11-0.03-0.15l0-0.08l0.01-0.1l0.02-0.01
			L11.33,4.3V4.23h-0.01L11.31,4.2l-0.03-0.04l0.02-0.12l0.03-0.01l0.03,0.1c0.01-0.04,0.02-0.11,0.05-0.19s0.04-0.12,0.06-0.13
			l0.01,0.01l0.01-0.05V3.75c0.06-0.06,0.1-0.1,0.13-0.1c0,0,0.01,0,0.01,0l0.02-0.01h0.04l0.02,0.02l0.02-0.01l0.05,0.02
			c0.03,0.04,0.05,0.09,0.07,0.14v0.08l0.03,0.13L11.86,4.1v0.03l-0.01,0.04v0.04h0.01l-0.02,0.1l-0.01,0.02h-0.01
			c-0.01,0.01-0.02,0.03-0.03,0.05h-0.02l-0.01,0.04c-0.03,0.01-0.06,0.02-0.07,0.01V4.43c-0.04-0.01-0.08-0.01-0.11-0.01
			l-0.01,0.02h-0.02l-0.01,0.01l-0.02-0.04H11.5v0.07c0.01,0.09,0.01,0.15,0.02,0.17L11.5,4.67l0.03,0.1v0.07l0.03,0.02l0.03,0.08
			l0.02,0.01l0,0.04l0.04,0.02c0.03-0.01,0.06-0.02,0.07-0.01l0-0.03l0.01,0.03L11.74,5l0.03,0.01l0.04-0.05l0.01,0.01l0.01-0.02
			l0.03-0.01V4.91l0.06,0.01V4.9l0.03-0.02c0.02-0.03,0.04-0.06,0.04-0.09c0.01-0.01,0.02-0.03,0.03-0.06l0.01,0.02V4.83z
			 M11.83,4.01l-0.01-0.05c-0.03-0.06-0.06-0.09-0.09-0.09h-0.04c-0.05,0-0.08,0.02-0.1,0.05l-0.01,0.02l0.01,0.01l-0.05,0.16
			l-0.01,0.06l-0.02-0.02v0.06l-0.01,0.03v0.04c0.03-0.01,0.07,0,0.12,0.03c0.02,0,0.05-0.02,0.1-0.06
			c0.05-0.04,0.07-0.08,0.08-0.11l0-0.02l0.02-0.02L11.83,4.01z"/>
		<path d="M12.84,4.96c-0.02,0.08-0.05,0.17-0.08,0.25c-0.04,0.09-0.08,0.15-0.11,0.17L12.64,5.4c-0.02-0.02-0.05-0.03-0.08-0.03
			l-0.01-0.04l-0.06-0.1l0-0.04h-0.01C12.47,5.12,12.46,5,12.45,4.81c-0.01-0.16-0.02-0.28-0.04-0.36L12.4,4.53v0.02l-0.02,0.01
			l-0.03,0.07c0,0.03,0,0.07-0.01,0.12s-0.01,0.1-0.01,0.12c-0.01,0.04-0.02,0.09-0.02,0.14l-0.04,0.15l-0.02,0.02l0,0.08
			c-0.02,0.03-0.03,0.09-0.05,0.17L12.15,5.5l-0.01,0.06l-0.03,0.02l-0.02,0.09l-0.08,0.12l-0.06,0.03l-0.02-0.01l-0.02,0.01
			l-0.01-0.02l0.01-0.02c0.02-0.03,0.05-0.07,0.07-0.13l0.05-0.04V5.58l0.03-0.05V5.48l0.03-0.02l0.02-0.1
			c0.01-0.01,0.02-0.04,0.03-0.08s0.02-0.07,0.03-0.08V5.16C12.18,5.15,12.2,5.09,12.22,5V4.97c0-0.02,0.01-0.05,0.03-0.09V4.85
			l0.03-0.08l0.01-0.05h0.01c0.02-0.09,0.05-0.22,0.08-0.38c0.03-0.18,0.05-0.31,0.06-0.4c0-0.07,0.01-0.18,0.02-0.32h-0.02
			L12.42,3.6L12.4,3.62l-0.03-0.01l-0.02,0.05c-0.05,0.01-0.08,0-0.1-0.01l-0.01,0.06H12.2l-0.03-0.06l-0.02-0.12L12.13,3.5
			l0.01-0.02V3.46c0.02,0.02,0.05,0.03,0.09,0.02l0,0.01l0.02-0.02l0.07-0.01l0.02-0.02l0.04,0.02l0.01,0.01l0.02-0.01l-0.01-0.02
			l0.07,0.01c0-0.05,0.01-0.11,0.03-0.18c0.02-0.08,0.02-0.13,0.03-0.17c0-0.03,0-0.07,0-0.13c0-0.13,0.01-0.31,0.02-0.55l0.01-0.05
			l0.08,0.02l0.03,0.04l-0.03,0.09l0.02,0.17l-0.01,0.04L12.61,3l0.01,0.04v0.07l-0.01,0.04v0.07l0,0.03H12.6
			c0,0.07-0.01,0.13,0,0.19h0.03l-0.01,0.04l0.07,0.04l0-0.07h0.1l0.04,0.07l-0.02,0.05l-0.06,0.01l-0.02,0.04
			c-0.04,0.02-0.06,0.03-0.07,0.03c-0.01,0.02-0.03,0.03-0.05,0.04l0,0.04h-0.02c-0.01,0.03-0.02,0.06-0.02,0.09l0.01,0.01
			l-0.01,0.05l0.02,0.04c-0.01,0.08-0.02,0.18-0.02,0.3l0.01,0.05l-0.01,0.03v0.1c-0.02,0.06-0.03,0.14-0.03,0.25l-0.01,0.02
			l0.02,0.25l-0.01,0.02l0.01,0.01c0,0.07,0,0.15,0.02,0.23l0.03,0.08l0.05,0.01c0.06-0.07,0.12-0.2,0.19-0.41L12.84,4.96z"/>
		<path d="M4.46,8.77L4.44,8.95h0v0.02L4.42,9l-0.01,0.1L4.4,9.12C4.39,9.17,4.37,9.24,4.36,9.33H4.34L4.32,9.41L4.31,9.43v0.01
			C4.28,9.46,4.23,9.48,4.18,9.48C4.16,9.47,4.15,9.46,4.15,9.45L4.13,9.47H4.11L4.07,9.41L4.06,9.43l0-0.03L4.04,9.41L4.03,9.39
			H4.01l0-0.01L4.01,9.36C3.99,9.3,3.97,9.26,3.96,9.25c-0.04-0.14-0.08-0.28-0.09-0.4S3.84,8.56,3.84,8.37
			C3.85,8.28,3.85,8.23,3.86,8.2l0.02-0.02l0-0.05l0.03-0.08h0.01C3.93,7.9,3.95,7.8,3.97,7.75L4,7.77L4.01,7.7l0.03-0.05V7.63
			l0.08-0.08l0.03,0.03V7.57l0.03,0.01l0.01,0.04l0.03,0.03c0.01,0.06,0.02,0.12,0.05,0.19L4.24,7.99L4.23,7.98L4.21,7.99v0.03H4.2
			L4.17,7.96L4.16,7.99L4.1,8.04L4.09,8.02L4.08,8.04H4.07L4.05,8.09v0.07L4.01,8.25L3.99,8.33L3.97,8.35L3.96,8.37L3.95,8.44
			l0.01,0.08L3.94,8.58c0,0.07,0,0.12,0,0.16c0,0.06,0,0.13,0.01,0.2l0.02,0.05l0.01,0.09c0.01,0.01,0.03,0.07,0.07,0.19
			c0.03,0.02,0.07,0.04,0.11,0.06c0.06,0,0.1-0.02,0.13-0.05V9.25l0.01-0.01V9.23c0.06-0.16,0.09-0.29,0.09-0.39
			c0-0.09-0.01-0.2-0.03-0.31C4.33,8.48,4.3,8.47,4.27,8.48L4.27,8.44H4.26L4.25,8.46H4.24v0.07L4.23,8.52L4.19,8.54v0.01L4.17,8.57
			L4.15,8.64v0.17l0.01,0.07l0.03,0.04L4.19,8.9l0.03,0.01l0.01-0.02h0.01c0.01-0.02,0.03-0.04,0.04-0.04L4.3,8.67l0.02,0.01
			L4.31,8.85L4.29,8.93L4.28,9L4.26,9.03v0.02L4.22,9.08L4.18,9.07L4.17,9.04L4.15,9.02c-0.01-0.03-0.02-0.06-0.03-0.1L4.11,8.87
			L4.08,8.79l0.01-0.17L4.07,8.61c0-0.1,0.01-0.18,0.02-0.25L4.1,8.35l0.02-0.1C4.12,8.23,4.14,8.21,4.17,8.2l0.02,0.02
			C4.21,8.21,4.22,8.2,4.23,8.2l0.01-0.03l0.03-0.02L4.3,8.16l0.09,0.16l0.01,0.03l0.01,0.02c0,0.06,0.01,0.15,0.02,0.25l0.01,0.01
			l0.01,0.03v0.04L4.46,8.77z"/>
		<path d="M5.61,6.37L5.59,6.41C5.58,6.5,5.57,6.57,5.58,6.63L5.54,6.72L5.53,6.79L5.52,6.78L5.47,6.9L5.45,6.88v0.04L5.44,6.95
			L5.4,6.96C5.32,6.87,5.27,6.78,5.25,6.7L5.24,6.55c0.01-0.1,0.03-0.2,0.05-0.31l0.04-0.1L5.39,6.1l0.04,0.08
			c0.01,0.05,0.02,0.13,0.02,0.24c0,0.03-0.01,0.06-0.01,0.07l0,0.04L5.42,6.57H5.4L5.39,6.54V6.42L5.4,6.38V6.32c0,0,0-0.02,0-0.04
			s0-0.03,0-0.03c-0.02,0-0.05,0.02-0.07,0.05C5.32,6.36,5.31,6.43,5.31,6.51l0.01,0.1L5.31,6.66l0.04,0.12L5.41,6.8
			C5.45,6.72,5.48,6.61,5.5,6.46L5.51,6.5h0.01l0.02-0.23L5.53,6.21L5.51,6.22c0-0.12,0.01-0.18,0.01-0.19c0-0.01,0-0.06-0.01-0.15
			L5.48,5.81C5.45,5.77,5.42,5.75,5.37,5.76V5.75L5.34,5.72L5.34,5.77L5.32,5.79L5.31,5.77L5.3,5.84L5.29,5.81L5.28,5.89l0-0.02
			L5.26,5.88L5.25,5.92h0.01C5.24,6,5.22,6.1,5.21,6.24c0,0.03,0,0.07-0.01,0.13c0,0.01,0,0.03-0.01,0.06
			c0,0.03-0.01,0.05-0.01,0.06c0,0.03,0,0.07-0.01,0.12C5.16,6.67,5.15,6.77,5.14,6.9c0,0.02,0.01,0.06,0.01,0.11l0.01,0.01
			c0,0.03,0,0.05,0,0.07c0,0.06,0,0.13-0.01,0.23C5.14,7.44,5.14,7.51,5.13,7.55c0,0.07,0,0.18-0.01,0.32L5.12,7.91l0.01,0.01
			l0.01,0.05L5.12,8.03C5.14,8.07,5.17,8.08,5.2,8.06l0,0.04l0.14-0.01l0.06-0.06L5.4,7.99l0.03-0.05L5.44,7.9L5.42,7.84L5.4,7.91
			L5.38,7.83l0.01-0.07l0.02,0.01l0.02-0.03c0.01,0.04,0.03,0.07,0.05,0.09L5.47,7.98L5.44,8.03v0.03L5.42,8.11L5.39,8.12L5.38,8.15
			v0.04H5.37L5.36,8.24L5.23,8.28V8.24L5.22,8.2V8.19H5.15L5.13,8.28l0.01,0.14C5.13,8.48,5.12,8.52,5.12,8.54l0.01,0.06
			C5.12,8.64,5.11,8.73,5.1,8.86L5.09,8.91l0,0.04L5.08,8.99l0.01,0.08l0.03,0.01l0.01,0.04v0.1L5.1,9.28
			c-0.01,0.1-0.02,0.18-0.03,0.23l0.01,0.04L5.07,9.64l0.01,0.03l-0.04,0.3L5.03,9.95c-0.01,0.07-0.01,0.16-0.01,0.27h0L4.99,10.4
			l-0.02-0.01l-0.01,0.12l0.01,0.04v0.08l0.01,0.05c-0.01,0.17-0.01,0.29-0.03,0.33l-0.02,0.02l0.01,0.01l-0.01,0.02l-0.02,0.08
			L4.9,11.17L4.9,11.21l-0.04,0.07l-0.01,0.05c-0.03,0.05-0.08,0.11-0.14,0.16H4.7l-0.02,0.02c-0.02-0.02-0.03-0.02-0.04-0.02
			c0,0-0.04,0-0.11,0.01L4.5,11.43l-0.05-0.05l-0.07-0.16c-0.01-0.06-0.02-0.13-0.03-0.2c0-0.07-0.01-0.13-0.01-0.2
			c0.01-0.17,0.02-0.29,0.04-0.37l0.03-0.04l0-0.04l0.01-0.01v-0.03l0.03-0.06h0.01c0.01-0.03,0.03-0.05,0.06-0.06
			c0.03,0.03,0.05,0.04,0.07,0.03l0.04,0.03l0.01,0.04l0.05,0.05l0.04,0.12l-0.01,0.11l0.01,0.02v0.05l0.01,0.04l-0.01,0.04l0,0.04
			l0,0.03l0,0.01v0.05c-0.01,0.07-0.02,0.12-0.02,0.15L4.68,11.1l-0.04,0.01l0-0.01H4.61l-0.03,0.05l-0.04-0.02L4.5,10.99
			c0-0.01,0-0.04-0.01-0.08c0-0.04,0-0.06,0-0.08c0,0,0-0.06,0.01-0.17l0.01-0.05l0.02-0.01l0.01,0.07l-0.01,0.1
			c0.01,0.05,0.02,0.13,0.03,0.22l0.01-0.04l0.02,0.07l0.02-0.06l0.03-0.04l0.02-0.09l0.01-0.08c-0.01-0.05-0.01-0.1-0.03-0.13
			l0,0.02v-0.17L4.6,10.43l-0.03,0.01l-0.04-0.07H4.48c-0.01,0.04-0.02,0.09-0.04,0.15c-0.01,0.07-0.01,0.16-0.01,0.25L4.43,10.8
			l0.01,0.05c0,0.04,0,0.14,0.03,0.3l0.07,0.22l0.03,0.04l0.07,0.01l0.01-0.03h0.02l0-0.03l0.01,0.02c0.02-0.02,0.04-0.02,0.06-0.02
			v0.02c0.01-0.02,0.02-0.04,0.03-0.07l0.03-0.04l-0.01-0.05l0.04-0.04l0.03-0.12l0.01-0.01l0.02-0.14l0.01-0.03l-0.01-0.02
			l0.01-0.01L4.9,10.9H4.9c0-0.03,0-0.06,0-0.11c0,0,0-0.01,0-0.02c0-0.01,0-0.02,0-0.02l-0.02-0.03l-0.02,0.04l-0.01-0.05
			c0.01-0.13,0.02-0.24,0.02-0.32c0-0.03,0-0.08,0-0.13s0-0.1,0-0.13c0-0.06,0.01-0.15,0.02-0.26c0.02-0.11,0.02-0.2,0.02-0.26
			c0-0.02,0-0.08-0.01-0.18l0.02-0.14l0,0.02l0.01-0.08L4.94,9.19l0.01-0.01L4.95,9.2l0.01-0.01L5,9.04L4.99,9.03H4.96
			c0.01-0.21,0.01-0.35,0.01-0.43C4.99,8.53,5,8.47,5,8.42L4.99,8.31L4.97,8.32v-0.1H4.95V8.17L4.93,8.16L4.92,8.13l0,0.04
			c0,0,0,0-0.01,0s-0.01,0-0.01,0L4.78,8.17L4.75,8.21H4.74v0.01L4.72,8.24C4.71,8.28,4.7,8.31,4.7,8.33H4.68l0,0.12l0.01,0.04
			L4.68,8.52L4.7,8.58h0.01L4.73,8.6L4.72,8.66H4.71L4.7,8.69L4.69,8.67L4.68,8.69L4.62,8.61L4.61,8.52l0.02-0.06l0.02-0.17
			c0.04-0.11,0.08-0.18,0.12-0.21C4.79,8.04,4.84,8.02,4.9,8V7.99l0.07-0.01c0-0.09,0-0.16,0-0.21l0.02-0.2L5,7.61l0.01-0.04
			L5.01,7.5c0.01-0.07,0.01-0.16,0.02-0.27c0-0.09,0-0.18,0.01-0.27c0.01-0.06,0.02-0.14,0.03-0.25c0-0.07,0.01-0.18,0.03-0.33V6.34
			C5.1,6.32,5.11,6.28,5.12,6.21c0.02-0.02,0.03-0.08,0.04-0.16c0.02-0.1,0.03-0.18,0.04-0.22c0.03-0.09,0.07-0.15,0.12-0.2
			L5.33,5.7l0.03-0.03h0.02L5.4,5.63l0.02-0.01C5.45,5.64,5.47,5.66,5.49,5.7L5.5,5.74l0.04,0.08L5.53,5.83l0.02,0.04l0,0.05
			l0.04,0.13L5.61,6.37z"/>
		<path d="M9.28,8.99c0,0.02-0.02,0.11-0.06,0.27L9.21,9.26l0,0.03L9.19,9.34L9.16,9.37l-0.03,0.1L9.11,9.52v0.03
			C9.07,9.58,9.03,9.59,9,9.58L8.99,9.57L8.97,9.58C8.95,9.58,8.91,9.55,8.86,9.52C8.82,9.41,8.79,9.25,8.77,9.03h0.01V8.99
			L8.77,8.94l0.01-0.03L8.77,8.87H8.76C8.75,8.81,8.75,8.69,8.75,8.52c0-0.1,0-0.17,0-0.23c0-0.01,0-0.03-0.01-0.07
			c0-0.03-0.01-0.05,0-0.08l0-0.01C8.72,8.19,8.72,8.24,8.71,8.3C8.7,8.39,8.69,8.44,8.7,8.45L8.68,8.5L8.67,8.57l0.01,0.06
			L8.65,8.81L8.62,8.86C8.61,8.91,8.6,8.97,8.58,9.03v0.05L8.56,9.11v0.06L8.52,9.22v0.07L8.52,9.29l0.01,0.08
			C8.5,9.41,8.49,9.47,8.48,9.55L8.45,9.6L8.45,9.68L8.42,9.75L8.4,9.87L8.39,9.88L8.34,9.87L8.3,9.81L8.29,9.75l0.03-0.04
			l0.01-0.04c0.03-0.03,0.06-0.1,0.09-0.23c0.03-0.12,0.05-0.21,0.06-0.29L8.51,9.1L8.51,9.08c0.01-0.05,0.02-0.09,0.03-0.12h0.01
			c0-0.04,0.02-0.09,0.04-0.14c0-0.05,0.01-0.11,0.03-0.18c0.02-0.1,0.03-0.16,0.04-0.17c0-0.02,0-0.05,0.01-0.09
			C8.65,8.33,8.67,8.24,8.7,8.09V8.04C8.71,8,8.72,7.92,8.73,7.8L8.72,7.7h0.01l0-0.09l0.01-0.02l0.01,0.01l0.01-0.01l0.04,0.04
			l0.02,0.05L8.81,7.71l0.03,0.05l0.02,0.17L8.84,8.03L8.83,8.06C8.85,8.12,8.86,8.2,8.86,8.3c0,0.09,0.01,0.17,0.01,0.26
			c0,0.02,0.01,0.06,0.01,0.11c0,0.03,0,0.06,0,0.11h0c0.01,0.15,0.01,0.26,0,0.32C8.9,9.19,8.93,9.27,8.96,9.37V9.4H8.95l0.01,0.06
			L9,9.47c0.04-0.01,0.1-0.08,0.17-0.22c0.02-0.03,0.04-0.12,0.08-0.25L9.28,8.99z M8.89,7.09c0,0.03,0,0.09-0.01,0.19L8.86,7.34
			L8.77,7.36L8.75,7.28c0-0.14,0.01-0.25,0.03-0.35l0.07,0.02l0.02,0.04l0.01,0.07l0.01-0.01c0,0,0,0.01,0,0.03
			C8.89,7.08,8.89,7.09,8.89,7.09z"/>
		<path d="M10.11,9.89L10.02,9.8l-0.01,0.01c-0.07-0.1-0.15-0.35-0.24-0.76C9.77,9.06,9.75,9.13,9.71,9.25
			c-0.03,0.1-0.05,0.16-0.06,0.17l0,0.03L9.62,9.49v0.04L9.6,9.54L9.59,9.57L9.56,9.58C9.55,9.6,9.54,9.62,9.53,9.62L9.53,9.6
			L9.49,9.58L9.45,9.51c0-0.03-0.02-0.1-0.06-0.21C9.36,9.22,9.35,9.1,9.35,8.94c0-0.19,0.01-0.34,0.04-0.44L9.4,8.46l0.01-0.08
			l0.02-0.03c0-0.03,0.01-0.07,0.04-0.13l0.08-0.1C9.57,7.98,9.61,7.9,9.67,7.86V7.71c0-0.09-0.01-0.22-0.02-0.4
			c0.01-0.05,0.01-0.1,0.01-0.16c0-0.11,0-0.16,0-0.17c0.01-0.32,0.03-0.51,0.05-0.6V6.34c0.02-0.11,0.05-0.29,0.08-0.52
			c0.03-0.05,0.06-0.11,0.07-0.17l0.04,0.02V5.67c0.02,0.05,0.04,0.12,0.06,0.2c0,0.05,0,0.1,0.01,0.17
			C10,6.12,10.01,6.17,10.01,6.2h0.02v0.01l-0.02,0.15l0.02,0.13c-0.01,0.19-0.02,0.3-0.02,0.33c0,0.2,0,0.31,0.01,0.33
			C10.01,7.17,10,7.19,9.99,7.22V7.3c0,0,0,0.03,0.01,0.08L9.98,7.41c0,0.08,0,0.14-0.01,0.17c0,0.03-0.01,0.08-0.02,0.15
			c0,0.01,0,0.03,0,0.04c0,0.04,0,0.1-0.01,0.16c-0.02,0.1-0.02,0.16-0.02,0.16c0,0.04-0.01,0.1-0.02,0.17L9.86,8.69l0.01,0.16
			L9.85,8.83l-0.01,0.1C9.86,9,9.87,9.06,9.87,9.14C9.89,9.17,9.9,9.23,9.92,9.33C9.93,9.37,9.95,9.42,9.97,9.5
			c0.02,0.07,0.04,0.13,0.08,0.17c0.01,0.06,0.03,0.11,0.06,0.15L10.11,9.89z M9.75,8.64L9.73,8.57L9.71,8.52L9.69,8.28L9.67,8.31
			H9.62C9.59,8.37,9.57,8.45,9.53,8.53l0,0.04L9.53,8.61H9.51L9.46,8.71C9.45,8.79,9.44,8.88,9.43,8.96v0.22
			c0,0.05,0.01,0.09,0.02,0.13L9.5,9.48C9.52,9.44,9.54,9.41,9.56,9.4l0.03-0.08l0-0.04l0.04-0.04l0.02-0.08l0.02-0.02l0.01-0.07
			L9.67,9.06C9.7,8.97,9.72,8.9,9.74,8.83L9.72,8.7L9.75,8.64z M9.96,6.99L9.94,6.83V6.76l0.01,0.01c0.01-0.09,0.02-0.16,0.02-0.21
			L9.94,6.45l0.01-0.07V6.21c0-0.06-0.01-0.17-0.04-0.31h0L9.9,5.81L9.87,5.8L9.86,5.87l0,0.07l-0.01,0.1l0.01,0.03
			c0,0.03-0.01,0.08-0.02,0.13l0.01,0.01L9.83,6.42L9.81,6.5l0,0.06L9.79,6.58v0.1L9.78,6.71v0.24c0-0.02,0.01,0.08,0.02,0.3
			L9.79,7.3H9.78C9.77,7.38,9.77,7.44,9.77,7.49l0.02,0.04l0.02-0.05l0,0.11l0,0.03l0.01,0.01L9.8,7.7l0.01,0.03v0.04l0,0.01
			l0.01,0.01l0.01,0.05L9.79,7.82L9.78,7.87l0.03,0.12c0,0.13,0.01,0.19,0.01,0.2c0,0.01,0,0.05-0.01,0.12
			c0,0.02,0.01,0.1,0.02,0.23l0.01-0.01l0.01-0.16l0.01,0.01c0-0.04,0-0.08,0.01-0.13C9.89,8.18,9.89,8.14,9.9,8.13
			c0-0.04,0.01-0.1,0.02-0.19c0.02-0.22,0.03-0.37,0.03-0.46c0-0.04,0-0.09,0-0.13l0.02-0.06C9.96,7.19,9.97,7.09,9.96,6.99z"/>
		<path d="M10.93,8.97l-0.02,0.02v0.01C10.9,9.03,10.9,9.04,10.9,9.06L10.88,9.1v0.02l-0.02,0.05c-0.03,0.01-0.07,0.05-0.11,0.11
			l-0.03-0.04l0.02,0.06h-0.02l-0.04,0.08h-0.04l-0.02,0.02c-0.01,0-0.03,0-0.06,0.01l-0.02-0.02l-0.02,0.01
			c-0.03-0.03-0.05-0.04-0.07-0.01c-0.01,0-0.04-0.04-0.07-0.1V9.24l-0.03-0.07h0l-0.01-0.04l-0.01-0.02L10.31,9.1L10.3,9.07
			c0-0.03-0.01-0.05-0.02-0.07V8.98l-0.01-0.04V8.82l-0.02-0.04l-0.01,0.01c0-0.06-0.01-0.11-0.03-0.15l0-0.08l0.01-0.1l0.02-0.01
			l-0.01-0.01V8.37h-0.01l-0.01-0.04l-0.03-0.04l0.02-0.12l0.03-0.01l0.03,0.1c0.01-0.04,0.02-0.11,0.05-0.19s0.04-0.12,0.06-0.13
			l0.01,0.01l0.01-0.05V7.88c0.06-0.06,0.1-0.1,0.13-0.1c0,0,0.01,0,0.01,0l0.02-0.01h0.04L10.6,7.8l0.02-0.01l0.05,0.02
			c0.03,0.04,0.05,0.09,0.07,0.14v0.08l0.03,0.13l-0.02,0.07v0.03l-0.01,0.04v0.04h0.01l-0.02,0.1l-0.01,0.02h-0.01
			c-0.01,0.01-0.02,0.03-0.03,0.05h-0.02l-0.01,0.04c-0.03,0.01-0.06,0.02-0.07,0.01V8.57c-0.04-0.01-0.08-0.01-0.11-0.01
			l-0.01,0.02h-0.02L10.44,8.6l-0.02-0.04h-0.03v0.07c0.01,0.09,0.01,0.15,0.02,0.17l-0.02,0.01l0.03,0.1v0.07L10.45,9l0.03,0.08
			l0.02,0.01l0,0.04l0.04,0.02c0.03-0.01,0.06-0.02,0.07-0.01l0-0.03l0.01,0.03l0.02-0.01l0.03,0.01L10.7,9.1l0.01,0.01l0.01-0.02
			l0.03-0.01V9.04l0.06,0.01V9.03l0.03-0.02c0.02-0.03,0.04-0.06,0.04-0.09c0.01-0.01,0.02-0.03,0.03-0.06l0.01,0.02V8.97z
			 M10.72,8.15l-0.01-0.05C10.69,8.03,10.66,8,10.62,8h-0.04c-0.05,0-0.08,0.02-0.1,0.05l-0.01,0.02l0.01,0.01l-0.05,0.16
			l-0.01,0.06l-0.02-0.02v0.06L10.4,8.38v0.04c0.03-0.01,0.07,0,0.12,0.03c0.02,0,0.05-0.02,0.1-0.06c0.05-0.04,0.07-0.08,0.08-0.11
			l0-0.02l0.02-0.02L10.72,8.15z"/>
		<path d="M11.87,8.93l-0.01,0.09c-0.06,0.19-0.11,0.3-0.14,0.35l-0.01,0.04h-0.04l-0.01,0.01l-0.03-0.01l0-0.02h-0.02
			c-0.04-0.17-0.07-0.32-0.09-0.46l-0.05,0.14l-0.04,0.05l-0.01,0.06L11.4,9.19l-0.01,0.03l-0.02,0.03l-0.02,0.12L11.31,9.4v0.11
			l-0.04-0.01l-0.08-0.2C11.17,9.22,11.16,9.12,11.16,9l0.02-0.23c-0.01,0.05-0.04,0.09-0.07,0.13v0.03h-0.02v0.02l-0.01,0.01
			l-0.01,0.05l-0.02,0.03h-0.01c-0.03,0.02-0.05,0.04-0.06,0.07l-0.07,0.03l-0.01-0.08c0.07-0.07,0.16-0.2,0.27-0.41
			c0.02-0.04,0.04-0.1,0.08-0.2s0.05-0.16,0.07-0.2c0.01-0.01,0.03-0.04,0.05-0.07c0.03-0.06,0.06-0.11,0.09-0.17
			c0.04-0.06,0.07-0.11,0.1-0.14l0.01,0.01l0.01-0.01l0.04,0.14l0,0.05l-0.02,0.15l-0.01-0.01L11.6,8.23l-0.03,0.01l-0.01,0.03
			h-0.02l-0.01,0.02h-0.02l-0.01-0.02H11.5l0.01,0.07l-0.04,0.04c-0.02,0.03-0.03,0.06-0.03,0.09h-0.02l-0.02,0.08
			c-0.02,0.05-0.04,0.09-0.05,0.1l-0.01,0.02v0.02l-0.04,0.25l-0.02,0.02v0.03c-0.03,0.12-0.04,0.2-0.04,0.26l0.01,0.02
			c0.06-0.07,0.1-0.13,0.14-0.2V9.04c0.03-0.05,0.05-0.11,0.06-0.17c0.01-0.01,0.03-0.05,0.04-0.13c0.01-0.06,0.02-0.11,0.04-0.16
			c0-0.05,0-0.12,0.02-0.21l0.01,0.02l0.01-0.01l0.01,0.03l0,0.02h0.01l0,0.02h0.01c0.01,0.09,0.02,0.2,0.02,0.31v0.19
			c0,0.02,0,0.04,0,0.07c0,0.04-0.01,0.06-0.01,0.07v0.16c0,0.04,0.01,0.06,0.01,0.07l0.05-0.04l0-0.03l0.06-0.11h0
			c0.02-0.04,0.05-0.11,0.09-0.21l0.01-0.01L11.87,8.93z"/>
		<path d="M12.58,9.1c-0.01,0.05-0.02,0.12-0.02,0.23c-0.01,0.04-0.03,0.1-0.05,0.18c-0.02,0.03-0.05,0.08-0.09,0.15l-0.08,0.03
			c-0.03-0.01-0.08-0.04-0.15-0.1L12.17,9.6l-0.05-0.09L12.1,9.37V9.23c0-0.11,0-0.19,0.02-0.22L12.1,8.99l0.01-0.04
			c0.01-0.02,0.03-0.06,0.04-0.13c0.01-0.06,0.04-0.1,0.07-0.13l0.01-0.02h0l0.02-0.04C12.3,8.6,12.32,8.6,12.3,8.6
			c0.01,0,0.02,0,0.04,0.01c0.01,0.04,0.03,0.1,0.05,0.18c0,0.12,0,0.22,0.01,0.29c-0.01,0.04-0.01,0.06-0.01,0.08l-0.02,0.03
			l-0.01,0.07l-0.04,0.05l-0.01,0.06l-0.02-0.04l-0.04-0.03L12.22,9.2L12.2,9.07V8.99l0.03-0.03c0.01,0.05,0.02,0.08,0.03,0.09
			l-0.01,0.06l0.01,0.03l0.02,0.01l0-0.02h0.02c0.01-0.05,0.02-0.14,0.02-0.29C12.31,8.77,12.3,8.73,12.3,8.7l-0.03-0.01l-0.04,0.04
			l0,0.04l-0.04,0.05v0.04l-0.02,0.03l-0.01,0.08l0,0.08l0.02,0.03v0.05l-0.01,0.03l0,0.04l0,0.07l-0.01,0.02l0.01,0.04l0,0.04
			l0.02,0.08v0.03c0.02,0.05,0.05,0.08,0.08,0.09l0.02-0.03c0.01,0.01,0.02,0.02,0.04,0.03c0.02,0,0.04,0,0.08-0.01l0.05-0.08
			c0.03-0.14,0.05-0.25,0.05-0.33c0-0.06,0-0.22-0.01-0.47c-0.02-0.03-0.03-0.1-0.04-0.19l-0.01-0.02c0-0.02-0.01-0.11-0.02-0.26
			c-0.01-0.14-0.02-0.22-0.02-0.24c-0.02-0.06-0.03-0.14-0.03-0.22l0.01-0.07l-0.03-0.08c-0.02,0.04-0.03,0.08-0.03,0.1L12.3,7.71
			L12.29,7.8h-0.02l0,0.04l-0.02,0.01C12.24,7.92,12.23,8,12.21,8.08v0.05L12.2,8.16l0,0.05l-0.01,0.02l-0.02,0.1
			c-0.01,0.02-0.02,0.03-0.03,0.04c-0.01,0.05-0.02,0.1-0.03,0.15L12.1,8.54l-0.02,0.1l-0.01,0.02L12.06,8.7v0.04l-0.02,0.01
			l-0.02,0.12l-0.01,0.01l0,0.06C11.98,9,11.94,9.06,11.87,9.12l0.01-0.1c0.01-0.03,0.03-0.06,0.05-0.09h-0.01
			c0.01-0.03,0.02-0.07,0.04-0.14l0.02-0.04c0.02-0.06,0.03-0.12,0.03-0.17c0.03-0.06,0.06-0.19,0.09-0.38h0.01V8.15h0.02l0-0.09
			l0.03-0.08l0-0.06c0.02-0.04,0.04-0.13,0.07-0.26h0c0.01-0.05,0.01-0.08,0.02-0.1l0-0.06l0.02-0.07c0-0.05,0.01-0.1,0.02-0.16
			V7.21l0.02-0.05l-0.01-0.13L12.33,7V6.92l0.01-0.02l0.02,0.01l0.01-0.01c0.03,0.06,0.06,0.09,0.07,0.09l0.04,0.1
			c0.02,0.12,0.03,0.2,0.03,0.24c0,0.02,0,0.04,0,0.08l-0.02,0.03l0,0.09l0.01,0.04c0,0.05-0.01,0.1-0.02,0.14l0,0.04l-0.01,0.01
			c-0.01,0.04-0.01,0.08,0,0.13l-0.01,0.08l0.01,0.05l0.03,0.05V8.2c0.01,0.04,0.02,0.09,0.02,0.13L12.52,8.4l0,0.13l0.01,0.03
			c0.01,0.08,0.02,0.13,0.03,0.14c0,0.04,0.01,0.09,0.02,0.16c0.01,0.05,0.01,0.11,0.01,0.16C12.59,9.05,12.58,9.07,12.58,9.1z"/>
	</g>
</g>
<g id="Слой_2">
	<g>
		<path d="M15,1v14H1V1H15 M16,0H0v16h16V0L16,0z"/>
	</g>
</g>
<g id="Слой_3">
	<circle class="st1" cx="10.5" cy="8.5" r="3"/>
	<rect x="2.3" y="11.63" transform="matrix(-0.7947 0.607 -0.607 -0.7947 16.5152 18.6752)" width="5.61" height="1"/>
	<rect x="6.58" y="9.68" transform="matrix(0.607 0.7947 -0.7947 0.607 11.1725 -1.8125)" width="1.68" height="1.41"/>
	<g>
	</g>
	<g>
	</g>
	<g>
	</g>
	<g>
	</g>
	<g>
	</g>
	<g>
	</g>
	<g>
	</g>
	<g>
	</g>
	<g>
	</g>
	<g>
	</g>
	<g>
	</g>
	<g>
	</g>
	<g>
	</g>
	<g>
	</g>
	<g>
	</g>
</g>
</svg>
